<svg width="118" height="118" viewBox="0 0 118 118" fill="none" xmlns="http://www.w3.org/2000/svg">
  <path
    d="M29.0931 30.3816C29.0931 34.6088 32.5291 38.0448 36.7563 38.0448C36.7789 38.0448 36.8241 38.0448 36.8467 38.0448C37.1406 38.9264 37.6605 39.695 38.2935 40.3506C39.8759 39.582 41.5939 39.1525 43.3797 39.1525C44.7586 39.1525 46.0923 39.4011 47.3356 39.8759C48.1268 38.8586 48.6015 37.5927 48.6015 36.2138C48.6015 33.5237 46.8383 31.2858 44.4195 30.4946C44.4195 30.472 44.4195 30.4268 44.4195 30.4042C44.4195 28.9801 44.0126 27.6464 43.3119 26.5161C45.708 26.177 47.8782 25.1372 49.6414 23.6226C50.749 24.7981 52.1732 25.6571 53.7782 26.1092C53.9138 27.3073 54.3885 28.4149 55.0893 29.3418C57.0559 28.2341 59.2487 27.5785 61.5318 27.5785C63.2046 27.5785 64.8096 27.9176 66.3241 28.5054C67.59 29.0027 68.969 29.0027 70.2123 28.754C70.3479 29.9069 70.7322 30.9919 71.3199 31.9414C71.3199 31.9414 72.7441 33.7046 73.9422 34.5184C73.7839 35.0609 73.6709 35.626 73.6709 36.2364C73.6709 37.751 74.236 39.1073 75.1628 40.1471C76.5644 39.5368 78.0789 39.1525 79.6839 39.1525C81.2889 39.1525 82.8261 39.4916 84.2954 40.1245C85.1996 39.0621 85.7648 37.7283 85.7648 36.2138C85.7648 34.654 85.1544 33.2525 84.1824 32.1674C84.9962 30.9467 85.4709 29.4774 85.4709 27.895C85.4709 23.6678 82.0349 20.2318 77.8077 20.2318C77.4912 20.2318 77.1747 20.277 76.8808 20.3222C76.0897 17.5644 73.5579 15.5299 70.5513 15.5299C68.2004 15.5299 66.1659 16.7506 64.9904 18.5816C65.0356 18.2199 65.1035 17.8582 65.1035 17.4965C65.1035 12.5686 61.1023 8.56743 56.1743 8.56743C55.0667 8.56743 54.0268 8.79348 53.0548 9.15517C51.0881 4.70191 46.6801 1.60498 41.5261 1.60498C38.836 1.60498 36.3494 2.46398 34.3149 3.91072C31.7379 1.58237 28.3471 0.113022 24.5946 0.113022C16.5697 0.113022 10.082 6.60076 10.082 14.6257C10.082 22.6506 16.5697 29.1383 24.5946 29.1383C26.3126 29.1383 27.9176 28.7992 29.4322 28.2567C29.2287 28.9349 29.0931 29.6356 29.0931 30.3816Z"
    fill="#D52E2D" />
  <path
    d="M108.121 95.485V89.9241L89.2912 78.7345C87.7992 67.3866 86.3977 55.6544 84.9736 43.6509C81.9444 40.8479 77.3556 40.8479 74.7107 43.6509C74.869 52.7157 75.0272 61.5996 75.1176 70.3027L70.1897 67.364C69.4211 56.1065 68.7429 44.5552 68.0874 32.7552C64.4705 29.0253 58.6609 29.0253 55.0215 32.7552C54.3207 44.6682 53.5973 56.3326 52.7835 67.6804L47.8556 70.5965C47.9686 61.8031 48.1494 52.7835 48.3529 43.6283C45.708 40.8253 41.1192 40.8253 38.09 43.6283C36.6207 55.7674 35.1739 67.6352 33.6142 79.0735L15.3943 89.9015V117.457H61.7579H108.121V111.942L61.7579 106.449V95.485L108.121 106.516V100.978L61.7579 84.5893V73.5804L108.121 95.485Z"
    fill="#D52E2D" />
</svg>